<svg id="visual" viewBox="0 0 2400 900" width="2400" height="900" xmlns="http://www.w3.org/2000/svg" xmlns:xlink="http://www.w3.org/1999/xlink" version="1.1"><rect x="0" y="0" width="2400" height="900" fill="#32383f"></rect><path d="M0 725L57.2 720.8C114.3 716.7 228.7 708.3 343 682.2C457.3 656 571.7 612 686 611.3C800.3 610.7 914.7 653.3 1028.8 660.8C1143 668.3 1257 640.7 1371.2 645.8C1485.3 651 1599.7 689 1714 693.3C1828.3 697.7 1942.7 668.3 2057 650.2C2171.3 632 2285.7 625 2342.8 621.5L2400 618L2400 901L2342.8 901C2285.7 901 2171.3 901 2057 901C1942.7 901 1828.3 901 1714 901C1599.7 901 1485.3 901 1371.2 901C1257 901 1143 901 1028.8 901C914.7 901 800.3 901 686 901C571.7 901 457.3 901 343 901C228.7 901 114.3 901 57.2 901L0 901Z" fill="#35D097" stroke-linecap="round" stroke-linejoin="miter"></path></svg>