<svg id="visual" viewBox="0 0 2400 600" width="2400" height="600" xmlns="http://www.w3.org/2000/svg" xmlns:xlink="http://www.w3.org/1999/xlink" version="1.1"><rect x="0" y="0" width="2400" height="600" fill="#32383f"></rect><path d="M0 526L28.5 530.7C57 535.3 114 544.7 171.2 548.2C228.3 551.7 285.7 549.3 342.8 542.2C400 535 457 523 514.2 524.7C571.3 526.3 628.7 541.7 685.8 540.3C743 539 800 521 857.2 515.8C914.3 510.7 971.7 518.3 1028.8 521.3C1086 524.3 1143 522.7 1200 531.2C1257 539.7 1314 558.3 1371.2 561.3C1428.3 564.3 1485.7 551.7 1542.8 541.3C1600 531 1657 523 1714.2 529.5C1771.3 536 1828.7 557 1885.8 565.7C1943 574.3 2000 570.7 2057.2 560C2114.3 549.3 2171.7 531.7 2228.8 530.5C2286 529.3 2343 544.7 2371.5 552.3L2400 560L2400 601L2371.5 601C2343 601 2286 601 2228.8 601C2171.7 601 2114.3 601 2057.2 601C2000 601 1943 601 1885.8 601C1828.7 601 1771.3 601 1714.2 601C1657 601 1600 601 1542.8 601C1485.7 601 1428.3 601 1371.2 601C1314 601 1257 601 1200 601C1143 601 1086 601 1028.8 601C971.7 601 914.3 601 857.2 601C800 601 743 601 685.8 601C628.7 601 571.3 601 514.2 601C457 601 400 601 342.8 601C285.7 601 228.3 601 171.2 601C114 601 57 601 28.5 601L0 601Z" fill="#289a70" stroke-linecap="round" stroke-linejoin="miter"></path></svg>